<svg width="24" height="25" viewBox="0 0 24 25" fill="none" xmlns="http://www.w3.org/2000/svg">
<g clip-path="url(#clip0_1436_676)">
<path fill-rule="evenodd" clip-rule="evenodd" d="M7.81673 0.288287L21.2906 3.64769C22.6925 3.99722 23.5456 5.41703 23.1961 6.81892L19.3546 22.2262C19.0051 23.6281 17.5852 24.4812 16.1834 24.1316L2.7095 20.7722C1.30761 20.4227 0.454502 19.0029 0.804034 17.601L4.64549 2.19376C4.99503 0.791863 6.41484 -0.0612444 7.81673 0.288287ZM7.27547 4.64668L19.7864 7.766C20.07 7.8367 20.2425 8.12392 20.1718 8.4075L20.006 9.07278C19.9353 9.35637 19.648 9.52894 19.3645 9.45823L6.85355 6.33892C6.56996 6.26821 6.39738 5.981 6.46809 5.69741L6.63396 5.03214C6.70467 4.74855 6.99188 4.57597 7.27547 4.64668ZM18.8354 11.7207L6.32447 8.60137C6.04088 8.53066 5.75367 8.70323 5.68296 8.98682L5.51709 9.6521C5.44639 9.93568 5.61896 10.2229 5.90255 10.2936L18.4135 13.4129C18.697 13.4836 18.9843 13.3111 19.055 13.0275L19.2208 12.3622C19.2915 12.0786 19.119 11.7914 18.8354 11.7207ZM5.34136 12.3058L11.0833 13.7374C11.3669 13.8081 11.5395 14.0954 11.4688 14.3789L11.3029 15.0442C11.2322 15.3278 10.945 15.5004 10.6614 15.4297L4.91944 13.998C4.63585 13.9273 4.46328 13.6401 4.53398 13.3565L4.69986 12.6913C4.77056 12.4077 5.05777 12.2351 5.34136 12.3058Z" fill="white"/>
</g>
<defs>
<clipPath id="clip0_1436_676">
<rect width="24" height="24" fill="white" transform="translate(0 0.209961)"/>
</clipPath>
</defs>
</svg>
